<?xml version="1.0" standalone="no"?>
<svg xmlns:xlink="http://www.w3.org/1999/xlink" id="wave" style="transform:rotate(180deg); transition: 0.3s" viewBox="0 0 1440 100" version="1.1" xmlns="http://www.w3.org/2000/svg"><defs><linearGradient id="sw-gradient-0" x1="0" x2="0" y1="1" y2="0"><stop stop-color="rgba(255, 249, 234, 1)" offset="0%"/><stop stop-color="rgba(255, 249, 234, 1)" offset="100%"/></linearGradient></defs><path style="transform:translate(0, 0px); opacity:1" fill="url(#sw-gradient-0)" d="M0,10L26.7,20C53.3,30,107,50,160,51.7C213.3,53,267,37,320,26.7C373.3,17,427,13,480,16.7C533.3,20,587,30,640,30C693.3,30,747,20,800,25C853.3,30,907,50,960,48.3C1013.3,47,1067,23,1120,20C1173.3,17,1227,33,1280,45C1333.3,57,1387,63,1440,61.7C1493.3,60,1547,50,1600,40C1653.3,30,1707,20,1760,16.7C1813.3,13,1867,17,1920,30C1973.3,43,2027,67,2080,68.3C2133.3,70,2187,50,2240,36.7C2293.3,23,2347,17,2400,26.7C2453.3,37,2507,63,2560,65C2613.3,67,2667,43,2720,36.7C2773.3,30,2827,40,2880,48.3C2933.3,57,2987,63,3040,63.3C3093.3,63,3147,57,3200,53.3C3253.3,50,3307,50,3360,43.3C3413.3,37,3467,23,3520,30C3573.3,37,3627,63,3680,63.3C3733.3,63,3787,37,3813,23.3L3840,10L3840,100L3813.3,100C3786.7,100,3733,100,3680,100C3626.7,100,3573,100,3520,100C3466.7,100,3413,100,3360,100C3306.7,100,3253,100,3200,100C3146.7,100,3093,100,3040,100C2986.7,100,2933,100,2880,100C2826.7,100,2773,100,2720,100C2666.7,100,2613,100,2560,100C2506.7,100,2453,100,2400,100C2346.7,100,2293,100,2240,100C2186.7,100,2133,100,2080,100C2026.7,100,1973,100,1920,100C1866.7,100,1813,100,1760,100C1706.7,100,1653,100,1600,100C1546.7,100,1493,100,1440,100C1386.7,100,1333,100,1280,100C1226.7,100,1173,100,1120,100C1066.7,100,1013,100,960,100C906.7,100,853,100,800,100C746.7,100,693,100,640,100C586.7,100,533,100,480,100C426.7,100,373,100,320,100C266.7,100,213,100,160,100C106.7,100,53,100,27,100L0,100Z"/></svg>